<?xml version="1.0" encoding="iso-8859-1"?>
<!-- Generator: Adobe Illustrator 19.0.0, SVG Export Plug-In . SVG Version: 6.00 Build 0)  -->
<svg version="1.1" id="Layer_1" xmlns="http://www.w3.org/2000/svg" xmlns:xlink="http://www.w3.org/1999/xlink" x="0px" y="0px"
	 viewBox="0 0 512 512" style="enable-background:new 0 0 512 512;" xml:space="preserve">
<path style="fill:#8D472E;" d="M494.21,36.581l-9.406-9.406h-18.811l-9.406,28.217l18.811,18.811c5.194,5.194,13.617,5.194,18.811,0
	l0,0C504.6,63.815,504.6,46.97,494.21,36.581z"/>
<path style="fill:#BD7155;" d="M475.399,17.77c-10.389-10.389-27.234-10.39-37.622,0l0,0c-5.194,5.194-5.194,13.617,0,18.811
	l18.811,18.811l28.217-28.217L475.399,17.77z"/>
<path style="fill:#AB5034;" d="M449.063,53.511l9.406,9.406c5.194,5.194,13.617,5.194,18.811,0l16.973-16.973
	c2.571-2.571,2.574-6.74,0.007-9.315l-0.049-0.049l-18.811-18.811l-0.049-0.049c-2.575-2.567-6.743-2.565-9.315,0.007
	l-16.973,16.973C443.869,39.894,443.869,48.317,449.063,53.511z"/>
<path style="opacity:0.2;fill:#493023;enable-background:new    ;" d="M498.297,68.884l-13.492-13.492
	c-2.596,2.596-6.808,2.598-9.406,0l-18.811-18.811c-2.598-2.598-2.596-6.809,0-9.406l-13.492-13.492
	c-1.894,1.117-3.693,2.459-5.319,4.086c-5.194,5.194-5.194,13.617,0,18.811l15.049,22.574l22.574,15.05
	c5.194,5.194,13.617,5.194,18.811,0C495.837,72.577,497.179,70.778,498.297,68.884z"/>
<path style="fill:#7C9554;" d="M418.965,93.015h-18.811l-18.811,37.622l35.241,2.381l11.787-11.787
	c5.194-5.194,5.194-13.617,0-18.811L418.965,93.015z"/>
<path style="fill:#A0BC72;" d="M409.56,83.609c-5.194-5.194-13.617-5.194-18.811,0l-11.824,11.824l1.209,17.602l1.209,17.602
	l37.622-37.622L409.56,83.609z"/>
<path style="fill:#7C9554;" d="M416.583,133.019l-37.658-37.587c-41.076-24.045-95.019-17.85-130.207,17.339L33.331,328.158
	c-31.168,31.168-31.167,81.7,0,112.869l37.622,37.622c31.168,31.168,81.7,31.168,112.869,0l216.332-216.332
	C435.213,227.258,440.682,173.826,416.583,133.019z"/>
<path style="fill:#89AB58;" d="M32.614,328.912c-4.735,28.528,3.875,58.84,25.882,80.848l27.828,27.828
	c10.242,10.242,26.352,12.031,38.386,3.969c0.078-0.053,0.157-0.106,0.237-0.158c4.178-2.82,8.147-6.079,11.845-9.777
	L353.125,215.29c0.694-0.694,1.377-1.395,2.047-2.103c64.416-68.003-34.639-166.979-103.39-103.363
	c-1.036,0.959-2.058,1.942-3.065,2.949L33.331,328.158c-1.212,1.212-2.36,2.464-3.477,3.731
	C30.744,330.879,31.665,329.887,32.614,328.912z"/>
<circle style="fill:#A0BC72;" cx="296.694" cy="140.04" r="39.905"/>
<rect x="105.623" y="180.235" transform="matrix(0.7071 0.7071 -0.7071 0.7071 274.1998 -62.0787)" style="fill:#ADA999;" width="212.825" height="239.428"/>
<rect x="115.36" y="156.722" transform="matrix(0.7071 0.7071 -0.7071 0.7071 250.6853 -52.3363)" style="fill:#D5D2BD;" width="146.317" height="239.428"/>
<rect x="157.229" y="152.012" transform="matrix(0.7071 0.7071 -0.7071 0.7071 245.9824 -50.4022)" style="fill:#E7E4CD;" width="53.206" height="239.428"/>
<g>
	<path style="fill:#63684D;" d="M165.011,304.643c-14.262-14.262-14.262-37.469,0-51.732s37.469-14.262,51.732,0
		c14.262,14.262,14.262,37.469,0,51.732C202.481,318.905,179.273,318.905,165.011,304.643z M202.634,267.02
		c-6.483-6.483-17.031-6.483-23.515,0c-6.483,6.483-6.483,17.031,0,23.515s17.031,6.483,23.515,0
		C209.117,284.052,209.117,273.504,202.634,267.02z"/>
	<path style="fill:#63684D;" d="M226.148,365.78l-23.515-23.515c-2.94-2.94-3.748-7.397-2.029-11.183
		c1.721-3.786,5.609-6.107,9.758-5.825l36.488,2.479c1.129,0.076,3.301-0.073,5.162-1.933c2.593-2.592,2.593-6.813,0-9.406
		c-2.592-2.592-6.813-2.592-9.406,0c-3.896,3.896-10.212,3.896-14.109,0c-3.897-3.896-3.896-10.212,0-14.109
		c10.373-10.373,27.25-10.373,37.622,0s10.373,27.25,0,37.622c-5.434,5.434-12.95,8.251-20.623,7.731l-9.946-0.676l4.703,4.703
		c3.896,3.896,3.896,10.212,0,14.109C236.36,369.677,230.044,369.677,226.148,365.78z"/>
</g>
<path d="M501.266,29.527l-18.813-18.813c-6.974-6.973-16.288-10.797-26.107-10.713c-9.862,0.067-19.085,3.994-25.969,11.064
	c-8.296,8.517-8.602,22.061-1.019,31.081c-3.363,7.408-2.11,16.402,3.735,22.633l-14.126,14.126l-2.352-2.352
	c-9.076-9.074-23.843-9.074-32.92,0l-6.567,6.568c-44.69-22.296-99.373-13.497-135.464,22.593L26.276,321.104
	c-35.007,35.006-35.007,91.969,0,126.976L63.9,485.703C80.858,502.661,103.405,512,127.387,512s46.529-9.339,63.488-26.297
	l216.333-216.33c37.567-37.567,44.954-95.724,17.965-141.425c-2.8-4.743-8.916-6.32-13.662-3.518
	c-4.745,2.801-6.32,8.919-3.518,13.662c22.359,37.861,16.233,86.045-14.894,117.172l-216.33,216.33
	c-13.19,13.19-30.727,20.454-49.38,20.454s-36.19-7.264-49.38-20.454l-37.624-37.622c-27.227-27.227-27.227-71.53,0-98.758
	l215.386-215.387c31.259-31.26,79.239-37.896,117.089-16.353l11.294,11.228c1.946,1.934,4.489,2.901,7.034,2.901
	c2.563,0,5.126-0.982,7.075-2.944c3.884-3.908,3.865-10.224-0.041-14.108l-5.168-5.137l4.747-4.747c1.297-1.298,3.408-1.296,4.703,0
	l18.811,18.811c0.942,0.94,1.008,2.04,0.964,2.611c-0.423,5.494,3.687,10.29,9.181,10.713c5.498,0.432,10.289-3.687,10.713-9.179
	c0.318-4.132-0.483-8.208-2.233-11.854l10.768,10.768l-2.352,2.352c-3.896,3.896-3.896,10.212,0,14.108
	c3.896,3.896,10.212,3.896,14.109,0l18.811-18.811c3.896-3.896,3.896-10.212,0-14.109c-3.896-3.897-10.212-3.896-14.109,0
	l-2.352,2.352L446.242,79.85l0.959-0.959c6.23,5.843,15.224,7.095,22.633,3.735c4.323,3.633,9.682,5.456,15.031,5.456
	c5.814-0.001,11.614-2.154,16.051-6.475c7.068-6.885,10.998-16.107,11.063-25.968C512.043,45.772,508.238,36.5,501.266,29.527z
	 M486.993,67.31c-1.224,1.192-3.26,1.119-4.54-0.161l-2.821-2.821c-4.927-4.924-12.943-4.927-17.871,0
	c-0.028,0.028-0.063,0.041-0.094,0.063l-14.077-14.077c0.021-0.031,0.035-0.065,0.063-0.093c4.927-4.928,4.927-12.944,0-17.873
	l-2.821-2.821c-1.28-1.28-1.353-3.316-0.161-4.54c3.131-3.215,7.325-5.003,11.807-5.032c0.037,0,0.076,0,0.113,0
	c4.44,0,8.612,1.727,11.753,4.87l18.811,18.813c3.17,3.17,4.899,7.385,4.87,11.868C491.997,59.987,490.209,64.178,486.993,67.31z"/>
<g>
</g>
<g>
</g>
<g>
</g>
<g>
</g>
<g>
</g>
<g>
</g>
<g>
</g>
<g>
</g>
<g>
</g>
<g>
</g>
<g>
</g>
<g>
</g>
<g>
</g>
<g>
</g>
<g>
</g>
</svg>
